<svg xmlns="http://www.w3.org/2000/svg" width="930" height="788" viewBox="0 0 930 788"><g id="Group_14" data-name="Group 14" transform="translate(-494 -147)"><g id="Group_13" data-name="Group 13" transform="translate(494 147)"><ellipse id="Ellipse_22" cx="157" cy="23" fill="#f1f1f1" data-name="Ellipse 22" rx="157" ry="23" transform="translate(0 742)"/><path id="Path_115" fill="#3ecc5f" d="M374.936,654.976l39.415-12.348a144.461,144.461,0,0,0-14.722-46.995l-39.415,12.348A88.611,88.611,0,0,1,374.936,654.976Z" data-name="Path 115" transform="translate(-135 -56)"/><circle id="Ellipse_23" cx="36.8" cy="36.8" r="36.8" fill="#2f2e41" data-name="Ellipse 23" transform="translate(108.4 229.553)"/><path id="Path_116" fill="#9f616a" d="M105.5,727.5l-7,30h17l7-34Z" data-name="Path 116"/><path id="Path_117" fill="#9f616a" d="M187.5,727.5v28l17,2v-30Z" data-name="Path 117"/><path id="Path_118" fill="#9f616a" d="M235.5,465.5s2,43,4,46,20,46,20,46l9-28s-14-23-12-36,.74-29,.74-29Z" data-name="Path 118" transform="translate(-135 -56)"/><circle id="Ellipse_24" cx="28" cy="28" r="28" fill="#9f616a" data-name="Ellipse 24" transform="translate(129.5 249.5)"/><path id="Path_119" fill="#9f616a" d="M269.5,336.5s1,40-6,46,40,1,40,1-10-28-2-34S269.5,336.5,269.5,336.5Z" data-name="Path 119" transform="translate(-135 -56)"/><path id="Path_120" fill="#2f2e41" d="M306.5,381.5s-6-11-14-10-34,3-35,5-4,9-6,11-17,5-18,17,36,85,36,85-5,17-4,21-5,16-4,21-15,35-7,74v63s-27,109-19,117,35,3,40,0,26-154,26-154l10-51,1,112s-2,94,5,97,34,4,36-2c1.56-4.68,9.2-129.189,12.491-183.766a203.9,203.9,0,0,0-4.4-56.175c-4.162-18.878-10.2-41.057-17.088-50.058-13-17-21-71-21-71l17-31s-10-10-16-10S306.5,381.5,306.5,381.5Z" data-name="Path 120" transform="translate(-135 -56)"/><path id="Path_121" fill="#2f2e41" d="M239.5,397.5l-5.274,3.589S230.5,465.5,233.5,469.5s23.857,2.048,25.429-1.476S239.5,397.5,239.5,397.5Z" data-name="Path 121" transform="translate(-135 -56)"/><path id="Path_122" fill="#9f616a" d="M321.5,457.5s1,42,7,54,28,62,28,62-1.277,55.031,9.861,41.516S370.5,569.5,370.5,569.5l-19-74s-10-33-9-43S321.5,457.5,321.5,457.5Z" data-name="Path 122" transform="translate(-135 -56)"/><path id="Path_123" fill="#2f2e41" d="M339.5,795.3s1-.8,4,2.2,11,7,10,18-7,13-7,13v-3h-3v5s-5,16-28,6c0,0-1-8,0-13s1-29,4-28,11,2,13,6S340.5,804.1,339.5,795.3Z" data-name="Path 123" transform="translate(-135 -56)"/><path id="Path_124" fill="#2f2e41" d="M236.5,796.3s-1-.8-4,2.2-11,7-10,18,7,13,7,13v-3h3v5s5,16,28,6c0,0,1-8,0-13s-1-29-4-28-11,2-13,6S235.5,805.1,236.5,796.3Z" data-name="Path 124" transform="translate(-135 -56)"/><path id="Path_125" fill="#2f2e41" d="M326.5,392.5l14,3s0,22,4,31,11,30,8,31-31,15-33,7S312.5,392.5,326.5,392.5Z" data-name="Path 125" transform="translate(-135 -56)"/><circle id="Ellipse_25" cx="36.8" cy="36.8" r="36.8" fill="#2f2e41" data-name="Ellipse 25" transform="translate(68.534 181.1)"/><path id="Path_126" fill="#2f2e41" d="M208.592,304.372a36.8,36.8,0,0,0,56.829-19.323,36.8,36.8,0,1,1-71.787-15.091,36.788,36.788,0,0,0,14.958,34.414Z" data-name="Path 126" transform="translate(-135 -56)"/><circle id="Ellipse_26" cx="26.987" cy="26.987" r="26.987" fill="#2f2e41" data-name="Ellipse 26" transform="translate(108.4 245.5)"/><ellipse id="Ellipse_27" cx="23.92" cy="18.707" fill="#2f2e41" data-name="Ellipse 27" rx="23.92" ry="18.707" transform="translate(134.16 243.66)"/><ellipse id="Ellipse_28" cx="4.54" cy="8.032" fill="#a0616a" data-name="Ellipse 28" rx="4.54" ry="8.032" transform="translate(159.92 273.503)"/><rect id="Rectangle_99" width="534" height="429" fill="#f1f1f1" data-name="Rectangle 99" transform="matrix(0.958, 0.288, -0.288, 0.958, 406.204, 21.664)"/><line id="Line_1" x2="121.14" y2="48.965" fill="none" stroke="#3f3d56" stroke-miterlimit="10" stroke-width="2" data-name="Line 1" transform="translate(611.165 141.893)"/><path id="Path_127" fill="#3f3d56" d="M614.244,151.96l1.814-.847-4.182-8.931,9.214-3.518-.716-1.869-11.221,4.287Z" data-name="Path 127"/><path id="Path_128" fill="#3f3d56" d="M723.1,195.958l-.716-1.869,9.213-3.517-4.181-8.932,1.814-.847,5.09,10.88Z" data-name="Path 128"/><circle id="Ellipse_29" cx="11" cy="11" r="11" fill="#3f3d56" data-name="Ellipse 29" transform="translate(660.735 155.375)"/><line id="Line_2" x2="111.603" y1="67.951" fill="none" stroke="#3f3d56" stroke-miterlimit="10" stroke-width="2" data-name="Line 2" transform="translate(601.934 413.4)"/><path id="Path_129" fill="#3f3d56" d="M611.848,484.891l.4-1.961-9.661-1.977,2.678-9.492-1.927-.542-3.259,11.561Z" data-name="Path 129"/><path id="Path_130" fill="#3f3d56" d="M712.13,423.833l-1.927-.542,2.679-9.49-9.662-1.979.4-1.96,11.767,2.412Z" data-name="Path 130"/><circle id="Ellipse_30" cx="11" cy="11" r="11" fill="#3f3d56" data-name="Ellipse 30" transform="translate(646.735 436.375)"/><line id="Line_3" x2=".04" y2="130.662" fill="none" stroke="#3f3d56" stroke-miterlimit="10" stroke-width="2" data-name="Line 3" transform="translate(461.716 266.044)"/><path id="Path_131" fill="#3f3d56" d="M453.538,272.674,455,274.038l6.711-7.226,6.717,7.222,1.464-1.365-8.182-8.794Z" data-name="Path 131"/><path id="Path_132" fill="#3f3d56" d="M453.573,390.082l1.465-1.365,6.715,7.222,6.713-7.226,1.465,1.364-8.177,8.8Z" data-name="Path 132"/><circle id="Ellipse_31" cx="11" cy="11" r="11" fill="#3f3d56" data-name="Ellipse 31" transform="translate(450.735 320.375)"/><rect id="Rectangle_100" width="182" height="226" fill="#3f3d56" data-name="Rectangle 100" transform="translate(369)"/><rect id="Rectangle_101" width="182" height="226" fill="#3f3d56" data-name="Rectangle 101" transform="translate(748 215)"/><rect id="Rectangle_102" width="130" height="6" fill="#3ecc5f" data-name="Rectangle 102" transform="translate(774 263)"/><rect id="Rectangle_103" width="130" height="6" fill="#3ecc5f" data-name="Rectangle 103" transform="translate(774 284)"/><rect id="Rectangle_104" width="130" height="6" fill="#3ecc5f" data-name="Rectangle 104" transform="translate(774 305)"/><rect id="Rectangle_105" width="130" height="6" fill="#3ecc5f" data-name="Rectangle 105" transform="translate(774 326)"/><rect id="Rectangle_106" width="130" height="6" fill="#3ecc5f" data-name="Rectangle 106" transform="translate(774 347)"/><rect id="Rectangle_107" width="68" height="24" fill="#3ecc5f" data-name="Rectangle 107" transform="translate(805 369)"/><rect id="Rectangle_108" width="182" height="226" fill="#3f3d56" data-name="Rectangle 108" transform="translate(385 447)"/><rect id="Rectangle_109" width="130" height="6" fill="#3ecc5f" data-name="Rectangle 109" transform="translate(411.297 572.806)"/><rect id="Rectangle_110" width="130" height="6" fill="#3ecc5f" data-name="Rectangle 110" transform="translate(411.297 593.806)"/><rect id="Rectangle_111" width="130" height="6" fill="#3ecc5f" data-name="Rectangle 111" transform="translate(411.297 614.806)"/><rect id="Rectangle_112" width="130" height="6" fill="#3ecc5f" data-name="Rectangle 112" transform="translate(411.297 635.806)"/><path id="Path_136" fill="#3ecc5f" d="M586.121,583.441h-41.3a144.46,144.46,0,0,1,0-49.247h41.3a88.612,88.612,0,0,0,0,49.247Z" data-name="Path 136" opacity=".3" transform="translate(-135 -56)"/><rect id="Rectangle_113" width="76" height="5" fill="#3ecc5f" data-name="Rectangle 113" opacity=".3" transform="translate(468.297 482.806)"/><rect id="Rectangle_114" width="76" height="5" fill="#3ecc5f" data-name="Rectangle 114" opacity=".3" transform="translate(468.297 500.806)"/><rect id="Rectangle_115" width="76" height="5" fill="#3ecc5f" data-name="Rectangle 115" opacity=".3" transform="translate(468.297 518.806)"/><rect id="Rectangle_116" width="76" height="5" fill="#3ecc5f" data-name="Rectangle 116" opacity=".3" transform="translate(468.297 536.806)"/></g><g id="docusaurus_keytar" transform="translate(879.271 195.547)"><path id="Path_40" fill="#fff" fill-rule="evenodd" d="M99,52h64.016V77.911H99Z" data-name="Path 40" transform="translate(-25.839 -25.499)"/><path id="Path_41" fill="#3ecc5f" fill-rule="evenodd" d="M18.242,160.621A15.223,15.223,0,0,1,5.055,153a15.224,15.224,0,0,0,13.186,22.863H33.484V160.621Z" data-name="Path 41" transform="translate(-3 -49.528)"/><path id="Path_42" fill="#3ecc5f" fill-rule="evenodd" d="M90.2,47.824l53.362-3.335V36.868a15.242,15.242,0,0,0-15.242-15.242H59.731l-1.905-3.3a2.2,2.2,0,0,0-3.81,0l-1.905,3.3-1.905-3.3a2.2,2.2,0,0,0-3.81,0l-1.905,3.3-1.905-3.3a2.2,2.2,0,0,0-3.81,0l-1.905,3.3-.05,0-3.157-3.156a2.2,2.2,0,0,0-3.679.986l-1.043,3.89-3.957-1.061a2.2,2.2,0,0,0-2.694,2.695l1.059,3.958L19.46,29.982a2.2,2.2,0,0,0-.988,3.681l3.157,3.157c0,.016,0,.032,0,.049l-3.3,1.905a2.2,2.2,0,0,0,0,3.81l3.3,1.905-3.3,1.905a2.2,2.2,0,0,0,0,3.81l3.3,1.905-3.3,1.905a2.2,2.2,0,0,0,0,3.81l3.3,1.905-3.3,1.905a2.2,2.2,0,0,0,0,3.81l3.3,1.905-3.3,1.905a2.2,2.2,0,0,0,0,3.81l3.3,1.905-3.3,1.905a2.2,2.2,0,0,0,0,3.81l3.3,1.905-3.3,1.905a2.2,2.2,0,0,0,0,3.81l3.3,1.905-3.3,1.905a2.2,2.2,0,0,0,0,3.81l3.3,1.905-3.3,1.905a2.2,2.2,0,0,0,0,3.81l3.3,1.905-3.3,1.905a2.2,2.2,0,0,0,0,3.81l3.3,1.905-3.3,1.905a2.2,2.2,0,0,0,0,3.81l3.3,1.905-3.3,1.905a2.2,2.2,0,0,0,0,3.81l3.3,1.905a15.242,15.242,0,0,0,15.242,15.242h91.451a15.242,15.242,0,0,0,15.242-15.242V67.352L90.2,64.017a8.112,8.112,0,0,1,0-16.193" data-name="Path 42" transform="translate(-6.385 -17.226)"/><path id="Path_43" fill="#3ecc5f" fill-rule="evenodd" d="M143,173.484h22.863V143H143Z" data-name="Path 43" transform="translate(-36.307 -47.149)"/><path id="Path_44" fill="#44d860" fill-rule="evenodd" d="M183.484,153.242a3.79,3.79,0,0,0-.487.049c-.029-.114-.056-.229-.088-.344a3.805,3.805,0,1,0-3.765-6.536q-.127-.129-.255-.256a3.8,3.8,0,1,0-6.545-3.769c-.113-.032-.226-.059-.339-.088a3.813,3.813,0,1,0-7.523,0c-.113.029-.226.056-.339.088a3.806,3.806,0,1,0-6.545,3.769,15.234,15.234,0,1,0,25.4,14.66,3.8,3.8,0,1,0,.487-7.572" data-name="Path 44" transform="translate(-38.686 -45.959)"/><path id="Path_45" fill="#3ecc5f" fill-rule="evenodd" d="M153,118.242h22.863V103H153Z" data-name="Path 45" transform="translate(-38.686 -37.633)"/><path id="Path_46" fill="#44d860" fill-rule="evenodd" d="M188.242,112.254a1.905,1.905,0,1,0,0-3.81,1.958,1.958,0,0,0-.243.024c-.015-.057-.028-.114-.044-.171a1.906,1.906,0,0,0-.734-3.663,1.885,1.885,0,0,0-1.149.395q-.063-.065-.128-.128a1.885,1.885,0,0,0,.386-1.139,1.905,1.905,0,0,0-3.658-.746,7.621,7.621,0,1,0,0,14.667,1.905,1.905,0,0,0,3.658-.746,1.885,1.885,0,0,0-.386-1.139q.065-.063.128-.128a1.885,1.885,0,0,0,1.149.395,1.905,1.905,0,0,0,.734-3.663c.016-.056.029-.114.044-.171a1.964,1.964,0,0,0,.243.024" data-name="Path 46" transform="translate(-43.444 -37.36)"/><path id="Path_47" fill-rule="evenodd" d="M57.647,51.931a1.905,1.905,0,0,1-1.905-1.905,5.716,5.716,0,0,0-11.431,0,1.905,1.905,0,0,1-3.81,0,9.526,9.526,0,0,1,19.052,0,1.905,1.905,0,0,1-1.905,1.905" data-name="Path 47" transform="translate(-11.922 -22.763)"/><path id="Path_48" fill="#ffff50" fill-rule="evenodd" d="M103,161.588h45.726a15.242,15.242,0,0,0,15.242-15.242V93H118.242A15.242,15.242,0,0,0,103,108.242Z" data-name="Path 48" transform="translate(-26.791 -35.253)"/><path id="Path_49" fill-rule="evenodd" d="M154.692,109.156H116.557a.762.762,0,1,1,0-1.524h38.135a.762.762,0,0,1,0,1.524m0,15.242H116.557a.762.762,0,1,1,0-1.524h38.135a.762.762,0,0,1,0,1.524m0,15.242H116.557a.762.762,0,1,1,0-1.524h38.135a.762.762,0,0,1,0,1.524m0-37.963H116.557a.762.762,0,1,1,0-1.524h38.135a.762.762,0,0,1,0,1.524m0,15.1H116.557a.762.762,0,1,1,0-1.524h38.135a.762.762,0,0,1,0,1.524m0,15.242H116.557a.762.762,0,1,1,0-1.524h38.135a.762.762,0,0,1,0,1.524M166.108,61.61c-.009,0-.017,0-.026,0-2.355.08-3.469,2.436-4.452,4.514-1.026,2.172-1.819,3.584-3.119,3.541-1.44-.052-2.263-1.678-3.134-3.4-1-1.977-2.145-4.219-4.544-4.135-2.321.079-3.439,2.129-4.425,3.938-1.049,1.927-1.763,3.1-3.141,3.044-1.469-.053-2.249-1.376-3.152-2.906-1.007-1.7-2.17-3.62-4.524-3.554-2.282.078-3.4,1.818-4.392,3.353-1.046,1.623-1.779,2.612-3.174,2.554-1.5-.053-2.28-1.151-3.179-2.421-1.009-1.427-2.146-3.043-4.493-2.965-2.231.076-3.352,1.5-4.341,2.757-.939,1.192-1.672,2.135-3.223,2.076a.763.763,0,1,0-.055,1.524c2.3.077,3.464-1.372,4.475-2.657.9-1.14,1.671-2.124,3.2-2.176,1.468-.062,2.156.85,3.2,2.321.988,1.4,2.11,2.983,4.368,3.064,2.365.079,3.5-1.688,4.51-3.252.9-1.4,1.678-2.6,3.163-2.655,1.366-.051,2.11,1.029,3.159,2.805.988,1.674,2.108,3.571,4.41,3.655,2.382.082,3.531-2,4.534-3.837.868-1.591,1.687-3.094,3.139-3.144,1.366-.032,2.079,1.216,3.133,3.3.985,1.946,2.1,4.15,4.439,4.234l.129,0c2.335,0,3.443-2.343,4.424-4.416.868-1.837,1.69-3.567,3.1-3.637Z" data-name="Path 49" transform="translate(-28.932 -27.785)"/><path id="Path_50" fill="#3ecc5f" fill-rule="evenodd" d="M83,173.484h30.484V143H83Z" data-name="Path 50" transform="translate(-22.033 -47.149)"/><g id="Group_8" data-name="Group 8" transform="matrix(0.966, -0.259, 0.259, 0.966, 76.246, 63.524)"><rect id="Rectangle_3" width="64.414" height="25.429" fill="#d8d8d8" data-name="Rectangle 3" rx="2" transform="translate(0 0)"/><g id="Group_2" data-name="Group 2" transform="translate(1.068 16.061)"><rect id="Rectangle_4" width="3.721" height="3.721" fill="#4a4a4a" data-name="Rectangle 4" rx="1" transform="translate(11.714 0)"/><rect id="Rectangle_5" width="3.721" height="3.721" fill="#4a4a4a" data-name="Rectangle 5" rx="1" transform="translate(16.124 0)"/><rect id="Rectangle_6" width="3.721" height="3.721" fill="#4a4a4a" data-name="Rectangle 6" rx="1" transform="translate(20.535 0)"/><rect id="Rectangle_7" width="3.721" height="3.721" fill="#4a4a4a" data-name="Rectangle 7" rx="1" transform="translate(24.945 0)"/><rect id="Rectangle_8" width="3.721" height="3.721" fill="#4a4a4a" data-name="Rectangle 8" rx="1" transform="translate(29.355 0)"/><rect id="Rectangle_9" width="3.721" height="3.721" fill="#4a4a4a" data-name="Rectangle 9" rx="1" transform="translate(33.765 0)"/><rect id="Rectangle_10" width="3.721" height="3.721" fill="#4a4a4a" data-name="Rectangle 10" rx="1" transform="translate(38.175 0)"/><rect id="Rectangle_11" width="3.721" height="3.721" fill="#4a4a4a" data-name="Rectangle 11" rx="1" transform="translate(42.586 0)"/><rect id="Rectangle_12" width="3.721" height="3.721" fill="#4a4a4a" data-name="Rectangle 12" rx="1" transform="translate(46.996 0)"/><path id="Path_51" fill="#4a4a4a" fill-rule="evenodd" d="M.762,0h9.363a.762.762,0,0,1,.762.762v2.2a.762.762,0,0,1-.762.762H.762A.762.762,0,0,1,0,2.959V.762A.762.762,0,0,1,.762,0ZM52.305,0h9.364a.762.762,0,0,1,.762.762v2.2a.762.762,0,0,1-.762.762H52.3a.762.762,0,0,1-.762-.762V.762A.762.762,0,0,1,52.3,0Z" data-name="Path 51" transform="translate(0 0)"/></g><g id="Group_3" data-name="Group 3" transform="translate(1.068 7.156)"><path id="Path_52" fill="#4a4a4a" fill-rule="evenodd" d="M.762,0H4.336A.762.762,0,0,1,5.1.762v2.2a.762.762,0,0,1-.762.762H.762A.762.762,0,0,1,0,2.958V.762A.762.762,0,0,1,.762,0Z" data-name="Path 52" transform="translate(0 0)"/><rect id="Rectangle_13" width="3.721" height="3.721" fill="#4a4a4a" data-name="Rectangle 13" rx="1" transform="translate(5.788 0)"/><rect id="Rectangle_14" width="3.721" height="3.721" fill="#4a4a4a" data-name="Rectangle 14" rx="1" transform="translate(10.198 0)"/><rect id="Rectangle_15" width="3.721" height="3.721" fill="#4a4a4a" data-name="Rectangle 15" rx="1" transform="translate(14.609 0)"/><rect id="Rectangle_16" width="3.721" height="3.721" fill="#4a4a4a" data-name="Rectangle 16" rx="1" transform="translate(19.019 0)"/><rect id="Rectangle_17" width="3.721" height="3.721" fill="#4a4a4a" data-name="Rectangle 17" rx="1" transform="translate(23.429 0)"/><rect id="Rectangle_18" width="3.721" height="3.721" fill="#4a4a4a" data-name="Rectangle 18" rx="1" transform="translate(27.839 0)"/><rect id="Rectangle_19" width="3.721" height="3.721" fill="#4a4a4a" data-name="Rectangle 19" rx="1" transform="translate(32.249 0)"/><rect id="Rectangle_20" width="3.721" height="3.721" fill="#4a4a4a" data-name="Rectangle 20" rx="1" transform="translate(36.66 0)"/><rect id="Rectangle_21" width="3.721" height="3.721" fill="#4a4a4a" data-name="Rectangle 21" rx="1" transform="translate(41.069 0)"/><rect id="Rectangle_22" width="3.721" height="3.721" fill="#4a4a4a" data-name="Rectangle 22" rx="1" transform="translate(45.479 0)"/><rect id="Rectangle_23" width="3.721" height="3.721" fill="#4a4a4a" data-name="Rectangle 23" rx="1" transform="translate(49.89 0)"/><rect id="Rectangle_24" width="3.721" height="3.721" fill="#4a4a4a" data-name="Rectangle 24" rx="1" transform="translate(54.3 0)"/><rect id="Rectangle_25" width="3.721" height="3.721" fill="#4a4a4a" data-name="Rectangle 25" rx="1" transform="translate(58.71 0)"/></g><g id="Group_4" data-name="Group 4" transform="translate(63.499 6.658) rotate(180)"><path id="Path_53" fill="#4a4a4a" fill-rule="evenodd" d="M.762,0H4.337A.762.762,0,0,1,5.1.762v2.2a.762.762,0,0,1-.762.762H.762A.762.762,0,0,1,0,2.959V.762A.762.762,0,0,1,.762,0Z" data-name="Path 53" transform="translate(0 0)"/><rect id="Rectangle_26" width="3.721" height="3.721" fill="#4a4a4a" data-name="Rectangle 26" rx="1" transform="translate(5.788 0)"/><rect id="Rectangle_27" width="3.721" height="3.721" fill="#4a4a4a" data-name="Rectangle 27" rx="1" transform="translate(10.198 0)"/><rect id="Rectangle_28" width="3.721" height="3.721" fill="#4a4a4a" data-name="Rectangle 28" rx="1" transform="translate(14.609 0)"/><rect id="Rectangle_29" width="3.721" height="3.721" fill="#4a4a4a" data-name="Rectangle 29" rx="1" transform="translate(19.019 0)"/><rect id="Rectangle_30" width="3.721" height="3.721" fill="#4a4a4a" data-name="Rectangle 30" rx="1" transform="translate(23.429 0)"/><rect id="Rectangle_31" width="3.721" height="3.721" fill="#4a4a4a" data-name="Rectangle 31" rx="1" transform="translate(27.839 0)"/><rect id="Rectangle_32" width="3.721" height="3.721" fill="#4a4a4a" data-name="Rectangle 32" rx="1" transform="translate(32.249 0)"/><rect id="Rectangle_33" width="3.721" height="3.721" fill="#4a4a4a" data-name="Rectangle 33" rx="1" transform="translate(36.66 0)"/><rect id="Rectangle_34" width="3.721" height="3.721" fill="#4a4a4a" data-name="Rectangle 34" rx="1" transform="translate(41.07 0)"/><rect id="Rectangle_35" width="3.721" height="3.721" fill="#4a4a4a" data-name="Rectangle 35" rx="1" transform="translate(45.48 0)"/><rect id="Rectangle_36" width="3.721" height="3.721" fill="#4a4a4a" data-name="Rectangle 36" rx="1" transform="translate(49.89 0)"/><rect id="Rectangle_37" width="3.721" height="3.721" fill="#4a4a4a" data-name="Rectangle 37" rx="1" transform="translate(54.301 0)"/><rect id="Rectangle_38" width="3.721" height="3.721" fill="#4a4a4a" data-name="Rectangle 38" rx="1" transform="translate(58.71 0)"/><rect id="Rectangle_39" width="3.721" height="3.721" fill="#4a4a4a" data-name="Rectangle 39" rx="1" transform="translate(5.788 0)"/><rect id="Rectangle_40" width="3.721" height="3.721" fill="#4a4a4a" data-name="Rectangle 40" rx="1" transform="translate(10.198 0)"/><rect id="Rectangle_41" width="3.721" height="3.721" fill="#4a4a4a" data-name="Rectangle 41" rx="1" transform="translate(14.609 0)"/><rect id="Rectangle_42" width="3.721" height="3.721" fill="#4a4a4a" data-name="Rectangle 42" rx="1" transform="translate(19.019 0)"/><rect id="Rectangle_43" width="3.721" height="3.721" fill="#4a4a4a" data-name="Rectangle 43" rx="1" transform="translate(23.429 0)"/><rect id="Rectangle_44" width="3.721" height="3.721" fill="#4a4a4a" data-name="Rectangle 44" rx="1" transform="translate(27.839 0)"/><rect id="Rectangle_45" width="3.721" height="3.721" fill="#4a4a4a" data-name="Rectangle 45" rx="1" transform="translate(32.249 0)"/><rect id="Rectangle_46" width="3.721" height="3.721" fill="#4a4a4a" data-name="Rectangle 46" rx="1" transform="translate(36.66 0)"/><rect id="Rectangle_47" width="3.721" height="3.721" fill="#4a4a4a" data-name="Rectangle 47" rx="1" transform="translate(41.07 0)"/><rect id="Rectangle_48" width="3.721" height="3.721" fill="#4a4a4a" data-name="Rectangle 48" rx="1" transform="translate(45.48 0)"/><rect id="Rectangle_49" width="3.721" height="3.721" fill="#4a4a4a" data-name="Rectangle 49" rx="1" transform="translate(49.89 0)"/><rect id="Rectangle_50" width="3.721" height="3.721" fill="#4a4a4a" data-name="Rectangle 50" rx="1" transform="translate(54.301 0)"/><rect id="Rectangle_51" width="3.721" height="3.721" fill="#4a4a4a" data-name="Rectangle 51" rx="1" transform="translate(58.71 0)"/></g><g id="Group_6" data-name="Group 6" transform="translate(1.068 11.566)"><path id="Path_54" fill="#4a4a4a" fill-rule="evenodd" d="M.762,0H5.853a.762.762,0,0,1,.762.762v2.2a.762.762,0,0,1-.762.762H.762A.762.762,0,0,1,0,2.959V.763A.762.762,0,0,1,.762,0Z" data-name="Path 54" transform="translate(0 0)"/><g id="Group_5" data-name="Group 5" transform="translate(7.442 0)"><rect id="Rectangle_52" width="3.721" height="3.721" fill="#4a4a4a" data-name="Rectangle 52" rx="1" transform="translate(0 0)"/><rect id="Rectangle_53" width="3.721" height="3.721" fill="#4a4a4a" data-name="Rectangle 53" rx="1" transform="translate(4.41 0)"/><rect id="Rectangle_54" width="3.721" height="3.721" fill="#4a4a4a" data-name="Rectangle 54" rx="1" transform="translate(8.82 0)"/><rect id="Rectangle_55" width="3.721" height="3.721" fill="#4a4a4a" data-name="Rectangle 55" rx="1" transform="translate(13.231 0)"/><rect id="Rectangle_56" width="3.721" height="3.721" fill="#4a4a4a" data-name="Rectangle 56" rx="1" transform="translate(17.641 0)"/><rect id="Rectangle_57" width="3.721" height="3.721" fill="#4a4a4a" data-name="Rectangle 57" rx="1" transform="translate(22.051 0)"/><rect id="Rectangle_58" width="3.721" height="3.721" fill="#4a4a4a" data-name="Rectangle 58" rx="1" transform="translate(26.461 0)"/><rect id="Rectangle_59" width="3.721" height="3.721" fill="#4a4a4a" data-name="Rectangle 59" rx="1" transform="translate(30.871 0)"/><rect id="Rectangle_60" width="3.721" height="3.721" fill="#4a4a4a" data-name="Rectangle 60" rx="1" transform="translate(35.281 0)"/><rect id="Rectangle_61" width="3.721" height="3.721" fill="#4a4a4a" data-name="Rectangle 61" rx="1" transform="translate(39.691 0)"/><rect id="Rectangle_62" width="3.721" height="3.721" fill="#4a4a4a" data-name="Rectangle 62" rx="1" transform="translate(44.101 0)"/></g><path id="Path_55" fill="#4a4a4a" fill-rule="evenodd" d="M.763,0H5.578A.762.762,0,0,1,6.34.762v2.2a.762.762,0,0,1-.762.762H.762A.762.762,0,0,1,0,2.959V.763A.762.762,0,0,1,.762,0Z" data-name="Path 55" transform="translate(56.091 0)"/></g><g id="Group_7" data-name="Group 7" transform="translate(1.068 20.662)"><rect id="Rectangle_63" width="3.721" height="3.721" fill="#4a4a4a" data-name="Rectangle 63" rx="1" transform="translate(0 0)"/><rect id="Rectangle_64" width="3.721" height="3.721" fill="#4a4a4a" data-name="Rectangle 64" rx="1" transform="translate(4.41 0)"/><rect id="Rectangle_65" width="3.721" height="3.721" fill="#4a4a4a" data-name="Rectangle 65" rx="1" transform="translate(8.82 0)"/><rect id="Rectangle_66" width="3.721" height="3.721" fill="#4a4a4a" data-name="Rectangle 66" rx="1" transform="translate(13.231 0)"/><path id="Path_56" fill="#4a4a4a" fill-rule="evenodd" d="M.762,0H21.979a.762.762,0,0,1,.762.762v2.2a.762.762,0,0,1-.762.762H.762A.762.762,0,0,1,0,2.96V.762A.762.762,0,0,1,.762,0ZM24.191,0H26.94A.762.762,0,0,1,27.7.762v2.2a.762.762,0,0,1-.762.762H24.191a.762.762,0,0,1-.762-.762V.762A.762.762,0,0,1,24.191,0Z" data-name="Path 56" transform="translate(17.64 0)"/><rect id="Rectangle_67" width="3.721" height="3.721" fill="#4a4a4a" data-name="Rectangle 67" rx="1" transform="translate(46.031 0)"/><rect id="Rectangle_68" width="3.721" height="3.721" fill="#4a4a4a" data-name="Rectangle 68" rx="1" transform="translate(50.441 0)"/><rect id="Rectangle_69" width="3.721" height="3.721" fill="#4a4a4a" data-name="Rectangle 69" rx="1" transform="translate(58.71 0)"/><path id="Path_57" fill="#4a4a4a" d="M3.721,0V.823a.762.762,0,0,1-.762.762H.762A.762.762,0,0,1,0,.823V0Z" data-name="Path 57" transform="translate(58.296 1.585) rotate(180)"/><path id="Path_58" fill="#4a4a4a" d="M3.721,0V.823a.762.762,0,0,1-.762.762H.762A.762.762,0,0,1,0,.823V0Z" data-name="Path 58" transform="translate(54.576 2.136)"/></g><rect id="Rectangle_70" width="62.018" height="1.654" fill="#4a4a4a" data-name="Rectangle 70" rx=".827" transform="translate(1.343 0.816)"/><rect id="Rectangle_71" width="3.477" height="1.103" fill="#d8d8d8" data-name="Rectangle 71" opacity=".136" rx=".551" transform="translate(2.859 1.092)"/><rect id="Rectangle_72" width="3.477" height="1.103" fill="#d8d8d8" data-name="Rectangle 72" opacity=".136" rx=".551" transform="translate(7.618 1.092)"/><rect id="Rectangle_73" width="3.477" height="1.103" fill="#d8d8d8" data-name="Rectangle 73" opacity=".136" rx=".551" transform="translate(11.279 1.092)"/><rect id="Rectangle_74" width="3.477" height="1.103" fill="#d8d8d8" data-name="Rectangle 74" opacity=".136" rx=".551" transform="translate(14.939 1.092)"/><rect id="Rectangle_75" width="3.477" height="1.103" fill="#d8d8d8" data-name="Rectangle 75" opacity=".136" rx=".551" transform="translate(18.6 1.092)"/><rect id="Rectangle_76" width="3.477" height="1.103" fill="#d8d8d8" data-name="Rectangle 76" opacity=".136" rx=".551" transform="translate(23.176 1.092)"/><rect id="Rectangle_77" width="3.477" height="1.103" fill="#d8d8d8" data-name="Rectangle 77" opacity=".136" rx=".551" transform="translate(26.836 1.092)"/><rect id="Rectangle_78" width="3.477" height="1.103" fill="#d8d8d8" data-name="Rectangle 78" opacity=".136" rx=".551" transform="translate(30.497 1.092)"/><rect id="Rectangle_79" width="3.477" height="1.103" fill="#d8d8d8" data-name="Rectangle 79" opacity=".136" rx=".551" transform="translate(34.158 1.092)"/><rect id="Rectangle_80" width="3.477" height="1.103" fill="#d8d8d8" data-name="Rectangle 80" opacity=".136" rx=".551" transform="translate(38.734 1.092)"/><rect id="Rectangle_81" width="3.477" height="1.103" fill="#d8d8d8" data-name="Rectangle 81" opacity=".136" rx=".551" transform="translate(42.394 1.092)"/><rect id="Rectangle_82" width="3.477" height="1.103" fill="#d8d8d8" data-name="Rectangle 82" opacity=".136" rx=".551" transform="translate(46.055 1.092)"/><rect id="Rectangle_83" width="3.477" height="1.103" fill="#d8d8d8" data-name="Rectangle 83" opacity=".136" rx=".551" transform="translate(50.631 1.092)"/><rect id="Rectangle_84" width="3.477" height="1.103" fill="#d8d8d8" data-name="Rectangle 84" opacity=".136" rx=".551" transform="translate(54.291 1.092)"/><rect id="Rectangle_85" width="3.477" height="1.103" fill="#d8d8d8" data-name="Rectangle 85" opacity=".136" rx=".551" transform="translate(57.952 1.092)"/></g><path id="Path_59" fill="#44d860" fill-rule="evenodd" d="M133.484,153.242a3.79,3.79,0,0,0-.487.049c-.029-.114-.056-.229-.088-.344a3.805,3.805,0,1,0-3.765-6.536q-.127-.129-.255-.256a3.8,3.8,0,1,0-6.545-3.769c-.113-.032-.226-.059-.339-.088a3.813,3.813,0,1,0-7.523,0c-.113.029-.226.056-.339.088a3.806,3.806,0,1,0-6.545,3.769,15.234,15.234,0,1,0,25.4,14.66,3.8,3.8,0,1,0,.487-7.572" data-name="Path 59" transform="translate(-26.791 -45.959)"/><path id="Path_60" fill="#3ecc5f" fill-rule="evenodd" d="M83,118.242h30.484V103H83Z" data-name="Path 60" transform="translate(-22.033 -37.633)"/><path id="Path_61" fill="#44d860" fill-rule="evenodd" d="M128.242,112.254a1.905,1.905,0,0,0,0-3.81,1.962,1.962,0,0,0-.243.024c-.015-.057-.028-.114-.044-.171a1.906,1.906,0,0,0-.734-3.663,1.885,1.885,0,0,0-1.149.395q-.063-.065-.128-.128a1.885,1.885,0,0,0,.386-1.139,1.905,1.905,0,0,0-3.658-.746,7.621,7.621,0,1,0,0,14.667,1.905,1.905,0,0,0,3.658-.746,1.885,1.885,0,0,0-.386-1.139q.065-.063.128-.128a1.885,1.885,0,0,0,1.149.395,1.905,1.905,0,0,0,.734-3.663c.016-.056.029-.114.044-.171a1.959,1.959,0,0,0,.243.024" data-name="Path 61" transform="translate(-29.17 -37.361)"/><path id="Path_62" fill-rule="evenodd" d="M142.405,40.262a2.069,2.069,0,0,1-.373-.038,1.921,1.921,0,0,1-.358-.107,1.98,1.98,0,0,1-.328-.175,2.886,2.886,0,0,1-.29-.236,2.232,2.232,0,0,1-.235-.29,1.881,1.881,0,0,1-.32-1.059,2.07,2.07,0,0,1,.038-.373,2.2,2.2,0,0,1,.106-.358,2,2,0,0,1,.176-.328,1.836,1.836,0,0,1,.525-.526,1.979,1.979,0,0,1,.328-.175,1.92,1.92,0,0,1,.358-.107,1.762,1.762,0,0,1,.747,0,1.852,1.852,0,0,1,.686.282,2.885,2.885,0,0,1,.29.236,2.8,2.8,0,0,1,.236.29,1.942,1.942,0,0,1,.175.328,2,2,0,0,1,.145.732,1.932,1.932,0,0,1-.556,1.349,2.886,2.886,0,0,1-.29.236,1.9,1.9,0,0,1-1.059.32m15.242-.953a1.945,1.945,0,0,1-1.35-.556,2.9,2.9,0,0,1-.236-.29,1.882,1.882,0,0,1-.32-1.059,1.945,1.945,0,0,1,.556-1.349,2.889,2.889,0,0,1,.29-.236,1.981,1.981,0,0,1,.328-.175,1.919,1.919,0,0,1,.358-.107,1.763,1.763,0,0,1,.747,0,1.852,1.852,0,0,1,.686.282,2.882,2.882,0,0,1,.29.236,1.946,1.946,0,0,1,.556,1.349,2.142,2.142,0,0,1-.038.373,1.94,1.94,0,0,1-.107.358,2.708,2.708,0,0,1-.175.328,2.8,2.8,0,0,1-.236.29,2.882,2.882,0,0,1-.29.236,1.9,1.9,0,0,1-1.059.32" data-name="Path 62" transform="translate(-35.712 -21.573)"/></g></g></svg>