<svg xmlns="http://www.w3.org/2000/svg" width="170.77" height="238.23" viewBox="0 0 170.77 238.23"><defs><style>.a,.c,.h{fill:#f26643}.a,.b,.d,.e,.f,.g,.h,.i,.j{stroke:#383838;stroke-miterlimit:10;stroke-width:10px}.b{fill:#f8aa9c}.d,.e,.f,.g,.i,.j{fill:none}.d,.e,.f,.g,.h,.i,.j{stroke-linecap:round}.e{stroke-dasharray:0 14.77}.f{stroke-dasharray:0 16.7}.g{stroke-dasharray:0 16.58}.i,.j{stroke-dasharray:0 13.56}</style></defs><title>netconsd_FullColor</title><path d="M55.36,376,56,261.51a3.71,3.71,0,0,1,2.21-3.36l82.75-36.33a3.7,3.7,0,0,1,5.19,3.41l-.72,114.15a3.72,3.72,0,0,1-2.21,3.37L60.55,379.41A3.7,3.7,0,0,1,55.36,376Z" class="a" transform="translate(-50.36 -216.5)"/><path d="M125.36,446l.62-114.5a3.71,3.71,0,0,1,2.21-3.36l82.75-36.33a3.7,3.7,0,0,1,5.19,3.41l-.72,114.15a3.72,3.72,0,0,1-2.21,3.37l-82.65,36.66A3.7,3.7,0,0,1,125.36,446Z" class="b" transform="translate(-50.36 -216.5)"/><line x1="93.77" x2="147.87" y1="127.85" y2="104.09" class="c"/><line x1="93.77" x2="93.77" y1="127.85" y2="127.85" class="d"/><line x1="107.29" x2="141.1" y1="121.91" y2="107.06" class="e"/><line x1="147.87" x2="147.87" y1="104.09" y2="104.09" class="d"/><line x1="93.77" x2="124.35" y1="147.85" y2="134.42" class="c"/><line x1="93.77" x2="93.77" y1="147.85" y2="147.85" class="d"/><line x1="109.06" x2="116.7" y1="141.13" y2="137.78" class="f"/><line x1="124.35" x2="124.35" y1="134.42" y2="134.42" class="d"/><line x1="93.77" x2="139.32" y1="167.85" y2="147.85" class="c"/><line x1="93.77" x2="93.77" y1="167.85" y2="167.85" class="d"/><line x1="108.95" x2="131.73" y1="161.18" y2="151.18" class="g"/><line x1="139.32" x2="139.32" y1="147.85" y2="147.85" class="d"/><line x1="23.77" x2="77.87" y1="57.85" y2="34.09" class="h"/><line x1="23.77" x2="54.35" y1="77.85" y2="64.42" class="h"/><line x1="23.77" x2="69.32" y1="97.85" y2="77.85" class="h"/><line x1="112.78" x2="112.78" y1="24.21" y2="24.21" class="d"/><path d="M175.86,245.27A44.62,44.62,0,0,1,197,270.73" class="i" transform="translate(-50.36 -216.5)"/><line x1="148.22" x2="148.22" y1="60.82" y2="60.82" class="d"/><line x1="58.22" x2="58.22" y1="212.82" y2="212.82" class="d"/><path d="M95.86,424.76A44.61,44.61,0,0,1,74.72,399.3" class="j" transform="translate(-50.36 -216.5)"/><line x1="22.78" x2="22.78" y1="176.21" y2="176.21" class="d"/></svg>